<svg xmlns="http://www.w3.org/2000/svg" viewBox="0 0 343.72 384">
    <defs>
        <style>.cls-1{fill:#fff;}</style>
    </defs>
    <g id="Camada_2" data-name="Camada 2">
        <g id="Camada_1-2" data-name="Camada 1">
            <path class="cls-1"
                d="M172.64,0q22.5,27.81,45,55.63,22.31,27.49,44.64,55c.8,1,2.53,1.9,1.82,3.37s-2.48.8-3.78.8q-69,0-137.9,0-19.68,0-39.35,0c-1.18,0-2.78.53-3.42-.79s.86-2.18,1.6-3.09q43.44-53.52,86.93-107c1-1.26,2-2.58,2.95-3.87Z" />
            <path class="cls-1"
                d="M159.14,384c-8.93-6-18.46-11-27.74-16.35q-39.54-23-79.18-45.77c-1.15-.66-2.25-1.39-3.37-2.08l.33-.92c6.32,1,12.64,1.9,18.95,2.91q43.62,7,87.24,14c5.5.88,5.54.8,5.52,6.23q-.1,21-.25,42Z" />
            <path class="cls-1"
                d="M183.14,384c-.08-14.87-.12-29.73-.26-44.6,0-3,2.19-3,4.06-3.3,11.33-1.88,22.67-3.68,34-5.5l68.41-10.93c1.71-.27,3.42-.49,5.47-.78-.48,2-2.13,2.32-3.26,3q-51.75,30-103.54,59.84c-1.18.68-2.26,1.52-3.39,2.29Z" />
            <path class="cls-1"
                d="M171.91,136.32h91.47c6.22,0,6.26,0,3.25,5.25q-46,79.69-92,159.38c-2.67,4.64-2.8,4.6-5.48,0q-46.29-80.18-92.58-160.35c-2.33-4-2.23-4.23,2.37-4.23Z" />
            <path class="cls-1"
                d="M195.49,312.67c-2.69-.09-1.41-1.78-.75-2.95,3.94-7,8-13.87,12-20.79q38.6-66.84,77.21-133.66c.65-1.13,1-2.94,2.52-2.93,1.23,0,1.28,1.69,1.66,2.69q24.81,64.91,49.55,129.84c1.8,4.7,1.66,4.79-3.32,5.59q-52.83,8.44-105.67,17C217.68,309.18,206.72,310.9,195.49,312.67Z" />
            <path class="cls-1"
                d="M147.55,312.54l-50.63-8.1q-43.61-7-87.21-14c-5.3-.84-5.39-.85-3.54-5.71q24.76-64.92,49.56-129.83c.38-1,.41-2.53,1.74-2.63,1.05-.08,1.43,1.25,1.92,2.09q44.7,77.37,89.36,154.76c.54.95,1.47,1.94.87,3.09C149.24,313,148.29,312.68,147.55,312.54Z" />
            <path class="cls-1"
                d="M.71,235.91c-1.1-1.11-.59-2.55-.59-3.83q0-59.94,0-119.88c0-.5,0-1,0-1.49.15-3.72.71-4.07,3.91-2.24q12.51,7.16,25,14.4c3,1.74,6,3.66,9.1,5.2,2.89,1.44,3.49,3.05,2.27,6.19C30.36,160.1,20.54,186,10.66,211.9c-2.81,7.34-5.6,14.7-8.44,22C1.94,234.66,2,235.73.71,235.91Z" />
            <path class="cls-1"
                d="M342.84,236c-1.4-1.2-1.65-3-2.24-4.53-12.31-32.17-24.51-64.38-36.94-96.51-1.44-3.72-.78-5.42,2.63-7.3,11.15-6.16,22.1-12.66,33.13-19,3.64-2.09,4.24-1.79,4.25,2.39q0,61.05,0,122.11C343.66,234.1,344.05,235.19,342.84,236Z" />
            <path class="cls-1"
                d="M124.14,23.51q-5.74,7.08-11.49,14.17C93.59,61.14,74.47,84.55,55.52,108.09c-2.2,2.73-3.79,2.94-6.74,1.18-11.25-6.73-22.64-13.23-34-19.71-2.82-1.61-2.71-2.64,0-4.21q53.73-30.94,107.41-62a8.39,8.39,0,0,1,1.35-.52Z" />
            <path class="cls-1"
                d="M219.74,23.17c1.72-.46,2.6.63,3.61,1.22q52.26,30.12,104.5,60.28l1,.58c3.33,2,3.36,2.41.11,4.34-4.19,2.48-8.43,4.88-12.65,7.32-7.46,4.31-15,8.57-22.37,13-2,1.15-3.21,1.14-4.74-.75Q255.09,67,220.91,25.05A19.31,19.31,0,0,1,219.74,23.17Z" />
        </g>
    </g>
</svg>